<mxfile host="app.diagrams.net" modified="2024-04-04T02:41:39.616Z" agent="Mozilla/5.0 (Windows NT 10.0; Win64; x64) AppleWebKit/537.36 (KHTML, like Gecko) Chrome/123.0.0.0 Safari/537.36" etag="CYfcV25QdNc_LwXAap86" version="24.2.2" type="device">
  <diagram name="페이지-1" id="eJzXn-70RZ4R_ujs0-Ga">
    <mxGraphModel dx="2234" dy="2788" grid="0" gridSize="10" guides="1" tooltips="1" connect="1" arrows="1" fold="1" page="0" pageScale="1" pageWidth="827" pageHeight="1169" math="0" shadow="0">
      <root>
        <mxCell id="0" />
        <mxCell id="1" parent="0" />
        <mxCell id="YaWBt5eTtO_RDazxv08X-3" value="자판기 프로그램&amp;nbsp;&lt;div&gt;&amp;lt;사용자 입장&lt;/div&gt;" style="rounded=0;whiteSpace=wrap;html=1;" vertex="1" parent="1">
          <mxGeometry x="-471" y="-1628" width="164" height="60" as="geometry" />
        </mxCell>
        <mxCell id="YaWBt5eTtO_RDazxv08X-5" value="동전 입력&amp;nbsp;" style="rounded=0;whiteSpace=wrap;html=1;" vertex="1" parent="1">
          <mxGeometry x="-471" y="-1540" width="164" height="60" as="geometry" />
        </mxCell>
        <mxCell id="YaWBt5eTtO_RDazxv08X-6" value="음료수 선택지 입력&amp;nbsp;" style="rounded=0;whiteSpace=wrap;html=1;" vertex="1" parent="1">
          <mxGeometry x="-471" y="-1449" width="164" height="60" as="geometry" />
        </mxCell>
        <mxCell id="YaWBt5eTtO_RDazxv08X-8" value="음료 제공" style="rounded=0;whiteSpace=wrap;html=1;" vertex="1" parent="1">
          <mxGeometry x="-578" y="-1231" width="164" height="60" as="geometry" />
        </mxCell>
        <mxCell id="YaWBt5eTtO_RDazxv08X-9" value="음료를 제공 받지&amp;nbsp; 않음&lt;div&gt;즉시 실행 종료&amp;nbsp;&lt;/div&gt;" style="rounded=0;whiteSpace=wrap;html=1;" vertex="1" parent="1">
          <mxGeometry x="-365" y="-1231" width="164" height="60" as="geometry" />
        </mxCell>
        <mxCell id="YaWBt5eTtO_RDazxv08X-25" style="edgeStyle=none;curved=1;rounded=0;orthogonalLoop=1;jettySize=auto;html=1;exitX=1;exitY=1;exitDx=0;exitDy=0;fontSize=12;startSize=8;endSize=8;entryX=0.5;entryY=0;entryDx=0;entryDy=0;" edge="1" parent="1" source="YaWBt5eTtO_RDazxv08X-11" target="YaWBt5eTtO_RDazxv08X-9">
          <mxGeometry relative="1" as="geometry">
            <mxPoint x="-259" y="-1226" as="targetPoint" />
          </mxGeometry>
        </mxCell>
        <mxCell id="YaWBt5eTtO_RDazxv08X-27" style="edgeStyle=none;curved=1;rounded=0;orthogonalLoop=1;jettySize=auto;html=1;exitX=0;exitY=1;exitDx=0;exitDy=0;entryX=0.5;entryY=0;entryDx=0;entryDy=0;fontSize=12;startSize=8;endSize=8;" edge="1" parent="1" source="YaWBt5eTtO_RDazxv08X-11" target="YaWBt5eTtO_RDazxv08X-8">
          <mxGeometry relative="1" as="geometry" />
        </mxCell>
        <mxCell id="YaWBt5eTtO_RDazxv08X-11" value="음료를 구매하기에&amp;nbsp;&lt;div&gt;돈이 충분한가?&lt;/div&gt;" style="rhombus;whiteSpace=wrap;html=1;" vertex="1" parent="1">
          <mxGeometry x="-496.5" y="-1343" width="215" height="80" as="geometry" />
        </mxCell>
        <mxCell id="YaWBt5eTtO_RDazxv08X-12" value="" style="endArrow=classic;html=1;rounded=0;fontSize=12;startSize=8;endSize=8;curved=1;" edge="1" parent="1">
          <mxGeometry width="50" height="50" relative="1" as="geometry">
            <mxPoint x="-388" y="-1391" as="sourcePoint" />
            <mxPoint x="-388" y="-1343" as="targetPoint" />
          </mxGeometry>
        </mxCell>
        <mxCell id="YaWBt5eTtO_RDazxv08X-18" value="no" style="text;strokeColor=none;fillColor=none;html=1;align=center;verticalAlign=middle;whiteSpace=wrap;rounded=0;fontSize=16;" vertex="1" parent="1">
          <mxGeometry x="-281.5" y="-1271" width="60" height="30" as="geometry" />
        </mxCell>
        <mxCell id="YaWBt5eTtO_RDazxv08X-19" style="edgeStyle=none;curved=1;rounded=0;orthogonalLoop=1;jettySize=auto;html=1;exitX=0.5;exitY=0;exitDx=0;exitDy=0;fontSize=12;startSize=8;endSize=8;" edge="1" parent="1" source="YaWBt5eTtO_RDazxv08X-18" target="YaWBt5eTtO_RDazxv08X-18">
          <mxGeometry relative="1" as="geometry" />
        </mxCell>
        <mxCell id="YaWBt5eTtO_RDazxv08X-20" value="yes" style="text;strokeColor=none;fillColor=none;html=1;align=center;verticalAlign=middle;whiteSpace=wrap;rounded=0;fontSize=16;" vertex="1" parent="1">
          <mxGeometry x="-554" y="-1280" width="60" height="30" as="geometry" />
        </mxCell>
        <mxCell id="YaWBt5eTtO_RDazxv08X-28" style="edgeStyle=none;curved=1;rounded=0;orthogonalLoop=1;jettySize=auto;html=1;fontSize=12;startSize=8;endSize=8;exitX=0.5;exitY=1;exitDx=0;exitDy=0;" edge="1" parent="1" source="YaWBt5eTtO_RDazxv08X-8">
          <mxGeometry relative="1" as="geometry">
            <mxPoint x="-499" y="-1160" as="sourcePoint" />
            <mxPoint x="-496" y="-1126" as="targetPoint" />
          </mxGeometry>
        </mxCell>
        <mxCell id="YaWBt5eTtO_RDazxv08X-29" value="남은 거스름돈 제공&amp;nbsp;&lt;div&gt;실행 종료&lt;/div&gt;" style="rounded=0;whiteSpace=wrap;html=1;" vertex="1" parent="1">
          <mxGeometry x="-689" y="-999" width="164" height="60" as="geometry" />
        </mxCell>
        <mxCell id="YaWBt5eTtO_RDazxv08X-30" value="음료를 구매하기에&amp;nbsp;&lt;div&gt;돈이 충분한가?&lt;/div&gt;" style="rhombus;whiteSpace=wrap;html=1;" vertex="1" parent="1">
          <mxGeometry x="-605.5" y="-1118" width="215" height="80" as="geometry" />
        </mxCell>
        <mxCell id="YaWBt5eTtO_RDazxv08X-32" style="edgeStyle=none;curved=1;rounded=0;orthogonalLoop=1;jettySize=auto;html=1;entryX=0.5;entryY=0;entryDx=0;entryDy=0;fontSize=12;startSize=8;endSize=8;" edge="1" parent="1" source="YaWBt5eTtO_RDazxv08X-30" target="YaWBt5eTtO_RDazxv08X-30">
          <mxGeometry relative="1" as="geometry" />
        </mxCell>
        <mxCell id="YaWBt5eTtO_RDazxv08X-33" style="edgeStyle=none;curved=1;rounded=0;orthogonalLoop=1;jettySize=auto;html=1;exitX=0;exitY=1;exitDx=0;exitDy=0;entryX=0.5;entryY=0;entryDx=0;entryDy=0;fontSize=12;startSize=8;endSize=8;" edge="1" parent="1">
          <mxGeometry relative="1" as="geometry">
            <mxPoint x="-552.5" y="-1057" as="sourcePoint" />
            <mxPoint x="-605.5" y="-1005" as="targetPoint" />
          </mxGeometry>
        </mxCell>
        <mxCell id="YaWBt5eTtO_RDazxv08X-35" style="edgeStyle=none;curved=1;rounded=0;orthogonalLoop=1;jettySize=auto;html=1;exitX=1;exitY=1;exitDx=0;exitDy=0;fontSize=12;startSize=8;endSize=8;entryX=0.5;entryY=0;entryDx=0;entryDy=0;" edge="1" parent="1">
          <mxGeometry relative="1" as="geometry">
            <mxPoint x="-395" y="-1005" as="targetPoint" />
            <mxPoint x="-447" y="-1057" as="sourcePoint" />
          </mxGeometry>
        </mxCell>
        <mxCell id="YaWBt5eTtO_RDazxv08X-36" value="yes" style="text;strokeColor=none;fillColor=none;html=1;align=center;verticalAlign=middle;whiteSpace=wrap;rounded=0;fontSize=16;" vertex="1" parent="1">
          <mxGeometry x="-671" y="-1046" width="60" height="30" as="geometry" />
        </mxCell>
        <mxCell id="YaWBt5eTtO_RDazxv08X-37" value="no" style="text;strokeColor=none;fillColor=none;html=1;align=center;verticalAlign=middle;whiteSpace=wrap;rounded=0;fontSize=16;" vertex="1" parent="1">
          <mxGeometry x="-390.5" y="-1052" width="60" height="30" as="geometry" />
        </mxCell>
        <mxCell id="YaWBt5eTtO_RDazxv08X-38" value="즉시 실행 종료" style="rounded=0;whiteSpace=wrap;html=1;" vertex="1" parent="1">
          <mxGeometry x="-478" y="-999" width="164" height="60" as="geometry" />
        </mxCell>
        <mxCell id="YaWBt5eTtO_RDazxv08X-39" value="(1) 콜라(1000원) 구매 희망 할 때&lt;div&gt;&lt;br&gt;&lt;/div&gt;&lt;div&gt;coin에 1000원을 빼본 뒤&amp;nbsp;&lt;/div&gt;&lt;div&gt;-coin의 값이 0이거나 양수 :: 구매 0&lt;/div&gt;&lt;div&gt;- coin의 값이 음수&amp;nbsp; :: 구매 x&lt;/div&gt;" style="text;strokeColor=none;fillColor=none;html=1;align=left;verticalAlign=middle;whiteSpace=wrap;rounded=0;fontSize=16;" vertex="1" parent="1">
          <mxGeometry x="-257" y="-1530" width="260" height="106" as="geometry" />
        </mxCell>
        <mxCell id="YaWBt5eTtO_RDazxv08X-40" value="(1) 콜라(1000원) 구매 희망 할 때&lt;div&gt;- 현재 coin의 값이 양수 :: 거스름돈 o&lt;/div&gt;&lt;div&gt;- 현재 coin의 값이 0 :: 거스름돈x&lt;/div&gt;" style="text;strokeColor=none;fillColor=none;html=1;align=left;verticalAlign=middle;whiteSpace=wrap;rounded=0;fontSize=16;" vertex="1" parent="1">
          <mxGeometry x="-293" y="-1122" width="271" height="106" as="geometry" />
        </mxCell>
      </root>
    </mxGraphModel>
  </diagram>
</mxfile>
